# xmcd CD database file generated by OrangeCD 6.3
#
# Track frame offsets:
#	150
#	14215
#	28822
#	44210
#	58445
#	73187
#	88097
#	101710
#	117357
#	132785
#	145030
#	157897
#	172467
#	186425
#	199580
#	212032
#	225927
#	240267
#
# Disc length: 3397 seconds
#
# Revision: 4
# Processed by: cddbd v1.5.2PL0 Copyright (c) Steve Scherf et al.
# Submitted via: OrangeCD 6.3
#
DISCID=120d4312
DTITLE=Victoria Spivey - Moaning The Blues
DYEAR=1996
DGENRE=Classic Female Blues
TTITLE0=Moaning The Blues
TTITLE1=Black Snake Blues
TTITLE2=Dope Head Blues
TTITLE3=My Handy Man
TTITLE4=T.B. Blues
TTITLE5=Orgran Grinder Blues
TTITLE6=Murder In The First Degree
TTITLE7=How Do You Do It That Way
TTITLE8=Funny Feathers
TTITLE9=Blood Hound Blues
TTITLE10=Toothache Blues <Part 1>
TTITLE11=Dirty T.B. Blues
TTITLE12=Black Snake Swing
TTITLE13=Detroit Moan
TTITLE14=One Hour Mama
TTITLE15=Down Hill Pull
TTITLE16=Good Cabbage
TTITLE17=Hollywood Stomp
EXTD=
EXTT0=
EXTT1=
EXTT2=
EXTT3=
EXTT4=
EXTT5=
EXTT6=
EXTT7=
EXTT8=
EXTT9=
EXTT10=
EXTT11=
EXTT12=
EXTT13=
EXTT14=
EXTT15=
EXTT16=
EXTT17=
PLAYORDER=
